#!OML:ASF H:\Terrain\Patient Classification 1\Walking\steve\steve.ASF
:FULLY-SPECIFIED
:DEGREES
78
root 9.56544 15.6376 -13.416 6.83143 0.238847 7.1089
lowerback 0.209363 -1.12809 -7.53324
upperback -3.46902 -1.69251 -0.566479
thorax -3.52304 -0.626225 3.6839
lowerneck -7.97565 -0.736247 -1.85105
upperneck 12.8419 -1.01055 1.88212
head 5.1919 -0.458607 0.82044
rclavicle -7.38066e-016 9.93923e-015
rhumerus -81.9222 -29.2729 -11.07
rradius 14.9658
rwrist 39.8333
rhand -20.0596 -36.5392
rfingers 7.12502
rthumb 6.28229 -66.4261
lclavicle -7.38066e-016 9.93923e-015
lhumerus -10.5559 -18.9661 85.6348
lradius 54.2078
lwrist 21.6575
lhand -26.2097 -18.5335
lfingers 7.12502
lthumb 0.343176 11.446
rfemur -45.5946 -3.57825 19.7332
rtibia 26.7501
rfoot -14.0082 11.4267
rtoes -14.8195
lfemur 21.1893 0.436498 -29.7066
ltibia 6.36111e-014
lfoot -1.06896 -4.00769
ltoes -3.25963
79
root 9.57303 15.5676 -13.1253 6.71038 0.607028 6.9125
lowerback 0.194617 -1.16987 -7.047
upperback -3.3788 -1.72895 -0.467254
thorax -3.42206 -0.663197 3.51466
lowerneck -8.2822 -0.739995 -1.85641
upperneck 12.866 -0.994935 1.77345
head 5.25074 -0.456851 0.787795
rclavicle -8.82301e-017 -5.96354e-015
rhumerus -81.7732 -28.9334 -11.362
rradius 15.091
rwrist 38.6179
rhand -19.9989 -36.5801
rfingers 7.12502
rthumb 6.34092 -66.4652
lclavicle -8.82301e-017 -5.96354e-015
lhumerus -10.0494 -18.8362 85.5574
lradius 55.4065
lwrist 21.1439
lhand -25.6885 -19.0816
lfingers 7.12502
lthumb 0.846644 10.8965
rfemur -45.6235 -4.40364 20.7198
rtibia 27.6907
rfoot -14.7801 9.9578
rtoes -27.0773
lfemur 22.4129 0.185662 -29.3798
ltibia 9.54166e-015
lfoot 0.213418 -3.71211
ltoes -1.0449
80
root 9.57328 15.5207 -12.8432 6.60823 0.738411 6.52614
lowerback 0.281356 -1.11388 -6.39574
upperback -3.33101 -1.64149 -0.348603
thorax -3.43968 -0.637358 3.27294
lowerneck -8.88431 -0.697956 -2.189
upperneck 13.2254 -0.950685 2.24127
head 5.46767 -0.415675 0.991048
rclavicle 3.26286e-015 1.03368e-014
rhumerus -81.4446 -28.5767 -12.3224
rradius 15.2439
rwrist 37.2744
rhand -19.9546 -36.9561
rfingers 7.12502
rthumb 6.38368 -66.8399
lclavicle 3.26286e-015 1.03368e-014
lhumerus -9.59645 -18.9575 85.3905
lradius 56.4936
lwrist 20.9269
lhand -25.4446 -19.5129
lfingers 7.12502
lthumb 1.08217 10.4641
rfemur -45.6713 -2.91243 20.2466
rtibia 29.0216
rfoot -10.9049 10.0471
rtoes -12.2301
lfemur 23.4355 0.156949 -28.805
ltibia 4.45278e-014
lfoot 1.66021 -3.16844
ltoes 0.826265
81
root 9.5788 15.5213 -12.5524 6.55797 0.785643 6.66645
lowerback 0.244981 -1.07733 -6.17064
upperback -3.33723 -1.58574 -0.366181
thorax -3.43587 -0.616434 3.12657
lowerneck -8.91204 -0.741241 -2.54661
upperneck 13.0553 -0.98109 2.43257
head 5.42264 -0.434565 1.107
rclavicle 8.32993e-015 -5.56597e-015
rhumerus -81.2155 -28.2457 -12.8403
rradius 15.3806
rwrist 36.4594
rhand -19.7381 -37.3153
rfingers 7.12502
rthumb 6.59266 -67.1927
lclavicle 8.32993e-015 -5.56597e-015
lhumerus -9.4492 -18.9047 85.3865
lradius 57.5188
lwrist 20.8065
lhand -25.8799 -19.993
lfingers 7.12502
lthumb 0.661726 9.98569
rfemur -45.6097 -1.62752 19.1167
rtibia 30.5674
rfoot -7.12198 7.74641
rtoes -1.79115
lfemur 24.1971 0.17534 -28.8782
ltibia -3.18055e-015
lfoot 3.48878 -2.70124
ltoes -7.78175
82
root 9.59309 15.5286 -12.2605 6.62116 0.789949 6.52983
lowerback 0.114188 -1.01736 -5.63088
upperback -3.38361 -1.48388 -0.270414
thorax -3.42697 -0.579334 2.91875
lowerneck -8.51577 -0.890163 -2.60129
upperneck 12.314 -1.10989 1.9687
head 5.12677 -0.533393 0.961434
rclavicle -1.1427e-014 -5.96354e-015
rhumerus -81.5886 -28.3833 -11.7133
rradius 15.3628
rwrist 37.1793
rhand -19.7062 -37.3524
rfingers 7.12502
rthumb 6.62342 -67.2288
lclavicle -1.1427e-014 -5.96354e-015
lhumerus -9.55562 -19.0111 85.5339
lradius 58.6384
lwrist 21.02
lhand -26.5427 -20.1494
lfingers 7.12502
lthumb 0.0216187 9.83036
rfemur -45.6731 -0.944116 18.7382
rtibia 32.4665
rfoot -4.84985 5.28913
rtoes -1.39977
lfemur 24.8521 0.24351 -28.6648
ltibia 4.45278e-014
lfoot 6.19028 -2.33523
ltoes -13.8722
83
root 9.5869 15.505 -11.9769 6.2026 0.342569 5.80228
lowerback 0.514428 -0.747373 -4.86522
upperback -3.28071 -1.1184 0.0378611
thorax -3.58303 -0.41244 2.80488
lowerneck -8.35847 -0.977173 -2.76482
upperneck 11.8033 -1.16912 1.70626
head 4.94345 -0.586483 0.902589
rclavicle -1.89669e-014 1.15295e-014
rhumerus -82.664 -29.0831 -9.02108
rradius 15.1694
rwrist 39.518
rhand -19.716 -37.1032
rfingers 7.12502
rthumb 6.61402 -66.9799
lclavicle -1.89669e-014 1.15295e-014
lhumerus -9.50417 -19.5276 85.4861
lradius 59.6761
lwrist 21.7652
lhand -26.6754 -20.0284
lfingers 7.12502
lthumb -0.106549 9.95131
rfemur -45.455 0.6385 18.9063
rtibia 34.7511
rfoot -4.07247 3.95969
rtoes 4.53685
lfemur 22.5494 0.840148 -27.6715
ltibia 6.93923
lfoot 7.30727 -2.96683
ltoes -9.38822
84
root 9.5909 15.4699 -11.7026 5.9175 -0.0940901 5.2993
lowerback 0.895376 -0.569388 -4.16764
upperback -3.23232 -0.872604 0.287343
thorax -3.77153 -0.30314 2.66833
lowerneck -8.65531 -0.928997 -2.71841
upperneck 11.8159 -1.03533 1.19345
head 4.99201 -0.550852 0.743876
rclavicle 7.06307e-015 -4.77083e-015
rhumerus -83.3163 -29.7091 -6.87923
rradius 14.9074
rwrist 41.8504
rhand -19.5735 -36.7827
rfingers 7.12502
rthumb 6.75153 -66.6551
lclavicle 7.06307e-015 -4.77083e-015
lhumerus -9.74125 -19.2991 85.6082
lradius 60.68
lwrist 22.1845
lhand -26.6761 -20.2554
lfingers 7.12502
lthumb -0.107272 9.72431
rfemur -45.5109 1.98575 18.9573
rtibia 37.2005
rfoot -4.49995 3.37757
rtoes 7.5865
lfemur 20.2188 1.41226 -26.9817
ltibia 13.4205
lfoot 9.55299 -2.94306
ltoes -4.92099
